<svg width="884" height="232" viewBox="0 0 884 232" fill="none" xmlns="http://www.w3.org/2000/svg">
<rect width="332" height="150" fill="white"/>
<path d="M61.248 68.804H101.548V87.156H61.248V68.804ZM62.984 103.028H108.368V122H38.68V35.2H106.756V54.172H62.984V103.028ZM171.592 123.736C164.731 123.736 158.366 122.661 152.496 120.512C146.627 118.28 141.543 115.139 137.244 111.088C133.028 107.037 129.722 102.284 127.324 96.828C124.927 91.2893 123.728 85.2133 123.728 78.6C123.728 71.9867 124.927 65.952 127.324 60.496C129.722 54.9573 133.07 50.1627 137.368 46.112C141.667 42.0613 146.751 38.9613 152.62 36.812C158.572 34.58 165.062 33.464 172.089 33.464C180.272 33.464 187.588 34.828 194.036 37.556C200.484 40.284 205.816 44.2107 210.032 49.336L194.409 63.472C191.432 60.248 188.208 57.8507 184.736 56.28C181.347 54.6267 177.544 53.8 173.328 53.8C169.608 53.8 166.219 54.3787 163.161 55.536C160.102 56.6933 157.498 58.388 155.348 60.62C153.199 62.7693 151.504 65.3733 150.264 68.432C149.107 71.408 148.528 74.7973 148.528 78.6C148.528 82.2373 149.107 85.5853 150.264 88.644C151.504 91.7027 153.199 94.348 155.348 96.58C157.498 98.7293 160.06 100.424 163.036 101.664C166.095 102.821 169.443 103.4 173.08 103.4C176.718 103.4 180.272 102.821 183.744 101.664C187.216 100.424 190.73 98.3573 194.285 95.464L208.049 112.7C203.089 116.255 197.343 118.983 190.813 120.884C184.282 122.785 177.875 123.736 171.592 123.736ZM186.349 109.476V76.74H208.049V112.7L186.349 109.476ZM260.318 123.736C253.209 123.736 246.348 122.868 239.734 121.132C233.204 119.313 227.872 116.999 223.738 114.188L231.798 96.084C235.684 98.564 240.148 100.631 245.19 102.284C250.316 103.855 255.4 104.64 260.442 104.64C263.832 104.64 266.56 104.351 268.626 103.772C270.693 103.111 272.181 102.284 273.09 101.292C274.082 100.217 274.578 98.9773 274.578 97.572C274.578 95.588 273.669 94.0173 271.85 92.86C270.032 91.7027 267.676 90.752 264.782 90.008C261.889 89.264 258.665 88.52 255.11 87.776C251.638 87.032 248.125 86.0813 244.57 84.924C241.098 83.7667 237.916 82.2787 235.022 80.46C232.129 78.5587 229.773 76.12 227.954 73.144C226.136 70.0853 225.226 66.2413 225.226 61.612C225.226 56.404 226.632 51.692 229.442 47.476C232.336 43.26 236.634 39.8707 242.338 37.308C248.042 34.7453 255.152 33.464 263.666 33.464C269.37 33.464 274.95 34.1253 280.406 35.448C285.945 36.688 290.864 38.548 295.162 41.028L287.598 59.256C283.465 57.024 279.373 55.3707 275.322 54.296C271.272 53.1387 267.345 52.56 263.542 52.56C260.153 52.56 257.425 52.932 255.358 53.676C253.292 54.3373 251.804 55.2467 250.894 56.404C249.985 57.5613 249.53 58.884 249.53 60.372C249.53 62.2733 250.398 63.8027 252.134 64.96C253.953 66.0347 256.309 66.944 259.202 67.688C262.178 68.3493 265.402 69.052 268.874 69.796C272.429 70.54 275.942 71.4907 279.414 72.648C282.969 73.7227 286.193 75.2107 289.086 77.112C291.98 78.9307 294.294 81.3693 296.03 84.428C297.849 87.404 298.758 91.1653 298.758 95.712C298.758 100.755 297.312 105.425 294.418 109.724C291.608 113.94 287.35 117.329 281.646 119.892C276.025 122.455 268.916 123.736 260.318 123.736Z" fill="#001B70"/>
<rect x="341" width="541" height="150" fill="white"/>
<path d="M372.68 122V35.2H412.36C420.296 35.2 427.116 36.4813 432.82 39.044C438.607 41.6067 443.071 45.3267 446.212 50.204C449.353 54.9987 450.924 60.7027 450.924 67.316C450.924 73.8467 449.353 79.5093 446.212 84.304C443.071 89.0987 438.607 92.8187 432.82 95.464C427.116 98.0267 420.296 99.308 412.36 99.308H386.32L397.232 88.644V122H372.68ZM397.232 91.248L386.32 79.964H410.872C415.997 79.964 419.8 78.848 422.28 76.616C424.843 74.384 426.124 71.284 426.124 67.316C426.124 63.2653 424.843 60.124 422.28 57.892C419.8 55.66 415.997 54.544 410.872 54.544H386.32L397.232 43.26V91.248ZM469.095 122V35.2H493.647V122H469.095ZM517.314 122V35.2H541.866V102.532H583.282V122H517.314ZM599.198 122V35.2H623.75V102.532H665.166V122H599.198ZM671.513 122L709.829 35.2H734.009L772.449 122H746.905L716.897 47.228H726.569L696.561 122H671.513ZM692.469 105.136L698.793 87.032H741.201L747.525 105.136H692.469ZM802.108 122V85.296L807.812 100.052L769 35.2H794.916L822.94 82.196H807.936L836.084 35.2H859.892L821.204 100.052L826.66 85.296V122H802.108Z" fill="#AF005F"/>
<path d="M27.2387 216.776C23.6586 216.776 20.3589 216.216 17.3396 215.094C14.3634 213.93 11.7538 212.291 9.5109 210.177C7.3111 208.063 5.58577 205.583 4.3349 202.736C3.12717 199.89 2.5233 196.763 2.5233 193.355C2.5233 189.947 3.12717 186.82 4.3349 183.973C5.58577 181.127 7.33267 178.647 9.5756 176.533C11.8185 174.419 14.4497 172.802 17.469 171.68C20.4883 170.516 23.8096 169.934 27.4328 169.934C31.4442 169.934 35.0458 170.602 38.2377 171.939C41.4727 173.276 44.1901 175.217 46.3899 177.762L39.6611 183.973C38.022 182.248 36.232 180.976 34.291 180.156C32.35 179.294 30.2365 178.862 27.9504 178.862C25.7506 178.862 23.7449 179.207 21.9333 179.897C20.1217 180.588 18.5473 181.58 17.2102 182.874C15.9162 184.168 14.9026 185.699 14.1693 187.467C13.4792 189.236 13.1341 191.198 13.1341 193.355C13.1341 195.469 13.4792 197.41 14.1693 199.178C14.9026 200.946 15.9162 202.499 17.2102 203.836C18.5473 205.13 20.1001 206.122 21.8686 206.813C23.6802 207.503 25.6643 207.848 27.821 207.848C29.8914 207.848 31.8971 207.524 33.8381 206.877C35.8222 206.187 37.7417 205.044 39.5964 203.448L45.5488 211.018C43.0902 212.873 40.2218 214.296 36.9437 215.288C33.7087 216.28 30.4737 216.776 27.2387 216.776ZM35.9732 209.659V192.643H45.5488V211.018L35.9732 209.659ZM56.5791 216V170.71H76.1832C80.2378 170.71 83.7316 171.379 86.6646 172.716C89.5977 174.01 91.8622 175.886 93.4581 178.345C95.0541 180.803 95.852 183.736 95.852 187.144C95.852 190.508 95.0541 193.42 93.4581 195.878C91.8622 198.294 89.5977 200.148 86.6646 201.443C83.7316 202.737 80.2378 203.384 76.1832 203.384H62.4021L67.0605 198.79V216H56.5791ZM85.3706 216L74.0481 199.566H85.2412L96.6931 216H85.3706ZM67.0605 199.954L62.4021 195.037H75.6009C78.8359 195.037 81.2514 194.347 82.8473 192.967C84.4433 191.543 85.2412 189.602 85.2412 187.144C85.2412 184.642 84.4433 182.701 82.8473 181.321C81.2514 179.941 78.8359 179.25 75.6009 179.25H62.4021L67.0605 174.268V199.954ZM127.448 216.776C123.868 216.776 120.547 216.194 117.485 215.03C114.465 213.865 111.834 212.226 109.591 210.112C107.391 207.999 105.666 205.519 104.415 202.672C103.207 199.825 102.604 196.719 102.604 193.355C102.604 189.991 103.207 186.885 104.415 184.038C105.666 181.191 107.413 178.711 109.656 176.598C111.899 174.484 114.53 172.845 117.549 171.68C120.569 170.516 123.847 169.934 127.384 169.934C130.964 169.934 134.242 170.516 137.218 171.68C140.237 172.845 142.847 174.484 145.047 176.598C147.29 178.711 149.037 181.191 150.287 184.038C151.538 186.842 152.164 189.947 152.164 193.355C152.164 196.719 151.538 199.847 150.287 202.736C149.037 205.583 147.29 208.063 145.047 210.177C142.847 212.247 140.237 213.865 137.218 215.03C134.242 216.194 130.985 216.776 127.448 216.776ZM127.384 207.848C129.411 207.848 131.266 207.503 132.948 206.813C134.673 206.122 136.183 205.13 137.477 203.836C138.771 202.542 139.763 201.011 140.453 199.243C141.186 197.474 141.553 195.512 141.553 193.355C141.553 191.198 141.186 189.236 140.453 187.467C139.763 185.699 138.771 184.168 137.477 182.874C136.226 181.58 134.738 180.588 133.013 179.897C131.287 179.207 129.411 178.862 127.384 178.862C125.356 178.862 123.48 179.207 121.755 179.897C120.073 180.588 118.584 181.58 117.29 182.874C115.996 184.168 114.983 185.699 114.25 187.467C113.559 189.236 113.214 191.198 113.214 193.355C113.214 195.469 113.559 197.431 114.25 199.243C114.983 201.011 115.975 202.542 117.226 203.836C118.52 205.13 120.029 206.122 121.755 206.813C123.48 207.503 125.356 207.848 127.384 207.848ZM181.457 216.776C175.03 216.776 170.005 214.986 166.382 211.406C162.758 207.826 160.947 202.715 160.947 196.072V170.71H171.428V195.684C171.428 199.998 172.312 203.103 174.081 205.001C175.849 206.899 178.33 207.848 181.521 207.848C184.713 207.848 187.193 206.899 188.962 205.001C190.73 203.103 191.615 199.998 191.615 195.684V170.71H201.967V196.072C201.967 202.715 200.155 207.826 196.532 211.406C192.909 214.986 187.884 216.776 181.457 216.776ZM213.618 216V170.71H233.222C237.277 170.71 240.771 171.379 243.704 172.716C246.637 174.01 248.901 175.886 250.497 178.345C252.093 180.803 252.891 183.736 252.891 187.144C252.891 190.508 252.093 193.42 250.497 195.878C248.901 198.337 246.637 200.235 243.704 201.572C240.771 202.866 237.277 203.513 233.222 203.513H219.441L224.1 198.79V216H213.618ZM224.1 199.954L219.441 194.972H232.64C235.875 194.972 238.29 194.282 239.886 192.902C241.482 191.522 242.28 189.602 242.28 187.144C242.28 184.642 241.482 182.701 239.886 181.321C238.29 179.941 235.875 179.25 232.64 179.25H219.441L224.1 174.268V199.954ZM303.915 216.776C300.335 216.776 297.014 216.194 293.951 215.03C290.932 213.865 288.301 212.226 286.058 210.112C283.858 207.999 282.133 205.519 280.882 202.672C279.674 199.825 279.07 196.719 279.07 193.355C279.07 189.991 279.674 186.885 280.882 184.038C282.133 181.191 283.88 178.711 286.123 176.598C288.366 174.484 290.997 172.845 294.016 171.68C297.035 170.516 300.313 169.934 303.85 169.934C307.43 169.934 310.709 170.516 313.685 171.68C316.704 172.845 319.314 174.484 321.513 176.598C323.756 178.711 325.503 181.191 326.754 184.038C328.005 186.842 328.63 189.947 328.63 193.355C328.63 196.719 328.005 199.847 326.754 202.736C325.503 205.583 323.756 208.063 321.513 210.177C319.314 212.247 316.704 213.865 313.685 215.03C310.709 216.194 307.452 216.776 303.915 216.776ZM303.85 207.848C305.878 207.848 307.732 207.503 309.415 206.813C311.14 206.122 312.65 205.13 313.944 203.836C315.238 202.542 316.23 201.011 316.92 199.243C317.653 197.474 318.02 195.512 318.02 193.355C318.02 191.198 317.653 189.236 316.92 187.467C316.23 185.699 315.238 184.168 313.944 182.874C312.693 181.58 311.205 180.588 309.479 179.897C307.754 179.207 305.878 178.862 303.85 178.862C301.823 178.862 299.947 179.207 298.221 179.897C296.539 180.588 295.051 181.58 293.757 182.874C292.463 184.168 291.45 185.699 290.716 187.467C290.026 189.236 289.681 191.198 289.681 193.355C289.681 195.469 290.026 197.431 290.716 199.243C291.45 201.011 292.442 202.542 293.692 203.836C294.986 205.13 296.496 206.122 298.221 206.813C299.947 207.503 301.823 207.848 303.85 207.848ZM347.507 191.09H369.246V199.501H347.507V191.09ZM348.283 216H337.802V170.71H372.028V179.121H348.283V216ZM400.035 216V170.71H410.516V216H400.035ZM422.559 216V170.71H431.228L457.95 203.319H453.744V170.71H464.096V216H455.491L428.705 183.391H432.911V216H422.559ZM490.987 216.776C487.363 216.776 483.891 216.302 480.57 215.353C477.249 214.361 474.574 213.089 472.547 211.536L476.106 203.642C478.047 205.023 480.333 206.166 482.964 207.071C485.638 207.934 488.334 208.365 491.051 208.365C493.122 208.365 494.782 208.171 496.033 207.783C497.327 207.352 498.276 206.769 498.88 206.036C499.484 205.303 499.786 204.462 499.786 203.513C499.786 202.305 499.311 201.356 498.362 200.666C497.413 199.933 496.163 199.351 494.61 198.919C493.057 198.445 491.332 198.013 489.434 197.625C487.579 197.194 485.703 196.676 483.805 196.072C481.95 195.469 480.246 194.692 478.694 193.743C477.141 192.794 475.868 191.543 474.876 189.991C473.927 188.438 473.453 186.454 473.453 184.038C473.453 181.45 474.143 179.099 475.523 176.986C476.947 174.829 479.06 173.125 481.864 171.875C484.711 170.581 488.269 169.934 492.539 169.934C495.386 169.934 498.19 170.279 500.95 170.969C503.711 171.616 506.148 172.608 508.261 173.945L505.026 181.903C502.913 180.695 500.799 179.811 498.686 179.25C496.572 178.647 494.502 178.345 492.475 178.345C490.447 178.345 488.787 178.582 487.493 179.056C486.199 179.531 485.271 180.156 484.711 180.933C484.15 181.666 483.87 182.529 483.87 183.521C483.87 184.685 484.344 185.634 485.293 186.367C486.242 187.058 487.493 187.618 489.046 188.05C490.598 188.481 492.302 188.912 494.157 189.344C496.055 189.775 497.931 190.271 499.786 190.832C501.684 191.392 503.409 192.147 504.962 193.096C506.515 194.045 507.765 195.296 508.714 196.849C509.706 198.402 510.202 200.364 510.202 202.736C510.202 205.281 509.491 207.611 508.067 209.724C506.644 211.838 504.509 213.541 501.662 214.835C498.858 216.129 495.3 216.776 490.987 216.776ZM527.408 216V179.25H512.915V170.71H552.382V179.25H537.889V216H527.408ZM559.316 216V170.71H569.797V216H559.316ZM591.221 216V179.25H576.728V170.71H616.195V179.25H601.702V216H591.221ZM642.492 216.776C636.065 216.776 631.04 214.986 627.417 211.406C623.794 207.826 621.982 202.715 621.982 196.072V170.71H632.464V195.684C632.464 199.998 633.348 203.103 635.116 205.001C636.885 206.899 639.365 207.848 642.557 207.848C645.749 207.848 648.229 206.899 649.997 205.001C651.766 203.103 652.65 199.998 652.65 195.684V170.71H663.002V196.072C663.002 202.715 661.191 207.826 657.567 211.406C653.944 214.986 648.919 216.776 642.492 216.776ZM683.277 216V179.25H668.784V170.71H708.251V179.25H693.758V216H683.277ZM715.185 216V170.71H725.666V216H715.185ZM759.706 216.776C756.126 216.776 752.805 216.194 749.743 215.03C746.723 213.865 744.092 212.226 741.849 210.112C739.649 207.999 737.924 205.519 736.673 202.672C735.465 199.825 734.862 196.719 734.862 193.355C734.862 189.991 735.465 186.885 736.673 184.038C737.924 181.191 739.671 178.711 741.914 176.598C744.157 174.484 746.788 172.845 749.807 171.68C752.827 170.516 756.105 169.934 759.642 169.934C763.222 169.934 766.5 170.516 769.476 171.68C772.495 172.845 775.105 174.484 777.305 176.598C779.548 178.711 781.295 181.191 782.545 184.038C783.796 186.842 784.422 189.947 784.422 193.355C784.422 196.719 783.796 199.847 782.545 202.736C781.295 205.583 779.548 208.063 777.305 210.177C775.105 212.247 772.495 213.865 769.476 215.03C766.5 216.194 763.243 216.776 759.706 216.776ZM759.642 207.848C761.669 207.848 763.524 207.503 765.206 206.813C766.931 206.122 768.441 205.13 769.735 203.836C771.029 202.542 772.021 201.011 772.711 199.243C773.444 197.474 773.811 195.512 773.811 193.355C773.811 191.198 773.444 189.236 772.711 187.467C772.021 185.699 771.029 184.168 769.735 182.874C768.484 181.58 766.996 180.588 765.271 179.897C763.545 179.207 761.669 178.862 759.642 178.862C757.614 178.862 755.738 179.207 754.013 179.897C752.331 180.588 750.842 181.58 749.548 182.874C748.254 184.168 747.241 185.699 746.508 187.467C745.817 189.236 745.472 191.198 745.472 193.355C745.472 195.469 745.817 197.431 746.508 199.243C747.241 201.011 748.233 202.542 749.484 203.836C750.778 205.13 752.287 206.122 754.013 206.813C755.738 207.503 757.614 207.848 759.642 207.848ZM793.593 216V170.71H802.263L828.984 203.319H824.778V170.71H835.13V216H826.525L799.74 183.391H803.945V216H793.593ZM862.021 216.776C858.398 216.776 854.925 216.302 851.604 215.353C848.283 214.361 845.609 213.089 843.581 211.536L847.14 203.642C849.081 205.023 851.367 206.166 853.998 207.071C856.672 207.934 859.368 208.365 862.086 208.365C864.156 208.365 865.817 208.171 867.067 207.783C868.361 207.352 869.31 206.769 869.914 206.036C870.518 205.303 870.82 204.462 870.82 203.513C870.82 202.305 870.346 201.356 869.397 200.666C868.448 199.933 867.197 199.351 865.644 198.919C864.091 198.445 862.366 198.013 860.468 197.625C858.613 197.194 856.737 196.676 854.839 196.072C852.984 195.469 851.281 194.692 849.728 193.743C848.175 192.794 846.903 191.543 845.911 189.991C844.962 188.438 844.487 186.454 844.487 184.038C844.487 181.45 845.177 179.099 846.558 176.986C847.981 174.829 850.094 173.125 852.898 171.875C855.745 170.581 859.303 169.934 863.574 169.934C866.42 169.934 869.224 170.279 871.985 170.969C874.745 171.616 877.182 172.608 879.296 173.945L876.061 181.903C873.947 180.695 871.834 179.811 869.72 179.25C867.607 178.647 865.536 178.345 863.509 178.345C861.482 178.345 859.821 178.582 858.527 179.056C857.233 179.531 856.306 180.156 855.745 180.933C855.184 181.666 854.904 182.529 854.904 183.521C854.904 184.685 855.378 185.634 856.327 186.367C857.276 187.058 858.527 187.618 860.08 188.05C861.633 188.481 863.336 188.912 865.191 189.344C867.089 189.775 868.965 190.271 870.82 190.832C872.718 191.392 874.443 192.147 875.996 193.096C877.549 194.045 878.8 195.296 879.749 196.849C880.741 198.402 881.237 200.364 881.237 202.736C881.237 205.281 880.525 207.611 879.102 209.724C877.678 211.838 875.543 213.541 872.696 214.835C869.893 216.129 866.334 216.776 862.021 216.776Z" fill="white"/>
</svg>
